# xmcd
#
# Track frame offsets: 
#        150
#        18000
#        31167
#        46434
#        64698
#        84851
#        93825
#        110965
#        125797
#        141335
#        158625
#        179377
#        193619
#        214315
#        224660
#        245393
#        260790
#
# Disc length: 3693 seconds
#
# Revision: 0
# Processed by: cddbd v1.5.2PL0 Copyright (c) Steve Scherf et al.
# Submitted via: ExactAudioCopy v0.95b4
#
DISCID=f90e6b11
DTITLE=Jackson Taylor Band - Outlaw Vol.1 2001-2003
DYEAR=2005
DGENRE=Country Rock
TTITLE0=Blue Agave
TTITLE1=Humboldt County
TTITLE2=Maria
TTITLE3=Something More
TTITLE4=Guitars Jim Beam and Waylon
TTITLE5=Drinkin' All Night Long
TTITLE6=Old Lone Star
TTITLE7=Mas Mas Tequila
TTITLE8=She's A Real Good Girl
TTITLE9=Mama She's Pretty
TTITLE10=Circle Of Trust
TTITLE11=Cypsies and Drifters
TTITLE12=Long Legs and Long Necks
TTITLE13=Ride The Lightnin'
TTITLE14=Leave Me Alone
TTITLE15=She's A Real Good Girl
TTITLE16=Mama She's Pretty (original)
EXTD=
EXTT0=
EXTT1=
EXTT2=
EXTT3=
EXTT4=
EXTT5=
EXTT6=
EXTT7=
EXTT8=
EXTT9=
EXTT10=
EXTT11=
EXTT12=
EXTT13=
EXTT14=
EXTT15=
EXTT16=
PLAYORDER=
